<svg xmlns="http://www.w3.org/2000/svg" version="1.1" xmlns:xlink="http://www.w3.org/1999/xlink" xmlns:svgjs="http://svgjs.dev/svgjs" width="2000" height="1252" viewBox="0 0 2000 1252"><g transform="matrix(1,0,0,1,-1.2121212121212466,-2.01935483870966)"><svg viewBox="0 0 396 248" data-background-color="#ffffff" preserveAspectRatio="xMidYMid meet" height="1252" width="2000" xmlns="http://www.w3.org/2000/svg" xmlns:xlink="http://www.w3.org/1999/xlink"><g id="tight-bounds" transform="matrix(1,0,0,1,0.2400000000000091,0.4000000000000057)"><svg viewBox="0 0 395.52 247.2" height="247.2" width="395.52"><g><svg></svg></g><g><svg viewBox="0 0 395.52 247.2" height="247.2" width="395.52"><g transform="matrix(1,0,0,1,75.54432,100.55119102917254)"><svg viewBox="0 0 244.43135999999998 46.09761794165492" height="46.09761794165492" width="244.43135999999998"><g><svg viewBox="0 0 244.43135999999998 46.09761794165492" height="46.09761794165492" width="244.43135999999998"><g><svg viewBox="0 0 244.43135999999998 46.09761794165492" height="46.09761794165492" width="244.43135999999998"><g><svg viewBox="0 0 244.43135999999998 46.09761794165492" height="46.09761794165492" width="244.43135999999998"><g id="textblocktransform"><svg viewBox="0 0 244.43135999999998 46.09761794165492" height="46.09761794165492" width="244.43135999999998" id="textblock"><g><svg viewBox="0 0 244.43135999999998 46.09761794165492" height="46.09761794165492" width="244.43135999999998"><g transform="matrix(1,0,0,1,0,0)"><svg width="244.43135999999998" viewBox="1.34 -35.45 225.10999999999999 42.46" height="46.09761794165492" data-palette-color="#2ecc40"><path d="M27.44-1.1L32.86 7.01 24.9 7.01 20.7 0.71Q20.36 0.76 20.06 0.76 19.75 0.76 19.46 0.76L19.46 0.76Q16.97 0.76 14.66 0.11 12.35-0.54 10.34-1.72 8.33-2.91 6.67-4.57 5-6.23 3.82-8.24 2.64-10.25 1.99-12.56 1.34-14.87 1.34-17.36L1.34-17.36Q1.34-19.85 1.99-22.17 2.64-24.49 3.82-26.49 5-28.49 6.67-30.15 8.33-31.81 10.34-32.98 12.35-34.16 14.66-34.8 16.97-35.45 19.46-35.45L19.46-35.45Q21.95-35.45 24.27-34.8 26.59-34.16 28.59-32.98 30.59-31.81 32.25-30.15 33.91-28.49 35.08-26.49 36.25-24.49 36.9-22.17 37.55-19.85 37.55-17.36L37.55-17.36Q37.55-14.77 36.83-12.33 36.11-9.89 34.79-7.78 33.47-5.66 31.6-3.96 29.74-2.25 27.44-1.1L27.44-1.1ZM30.59-17.36L30.59-17.36Q30.59-19.65 29.71-21.69 28.83-23.73 27.33-25.23 25.83-26.73 23.79-27.61 21.75-28.49 19.46-28.49L19.46-28.49Q17.14-28.49 15.11-27.61 13.09-26.73 11.57-25.23 10.06-23.73 9.18-21.69 8.3-19.65 8.3-17.36L8.3-17.36Q8.3-15.06 9.18-13.05 10.06-11.04 11.57-9.52 13.09-8.01 15.11-7.13 17.14-6.25 19.46-6.25L19.46-6.25Q21.75-6.25 23.79-7.13 25.83-8.01 27.33-9.52 28.83-11.04 29.71-13.05 30.59-15.06 30.59-17.36ZM69.75-35.01L69.75-13.99Q69.75-11.08 68.65-8.53 67.55-5.98 65.65-4.09 63.74-2.2 61.19-1.1 58.64 0 55.73 0L55.73 0Q52.83 0 50.28-1.1 47.73-2.2 45.83-4.09 43.94-5.98 42.84-8.53 41.75-11.08 41.75-13.99L41.75-13.99 41.75-35.01 48.73-35.01 48.73-13.99Q48.73-12.55 49.28-11.28 49.83-10.01 50.78-9.06 51.73-8.11 53.01-7.56 54.29-7.01 55.73-7.01L55.73-7.01Q57.18-7.01 58.46-7.56 59.74-8.11 60.69-9.06 61.64-10.01 62.19-11.28 62.74-12.55 62.74-13.99L62.74-13.99 62.74-35.01 69.75-35.01ZM82.83-35.01L82.83 0 75.83 0 75.83-35.01 82.83-35.01ZM114.32-7.01L114.32 0 87.22 0 102.17-28 87.22-28 87.22-35.01 114.32-35.01 99.43-7.01 114.32-7.01ZM139.25-13.99L153.26-13.99 153.26-21Q153.26-22.44 152.71-23.72 152.16-25 151.21-25.95 150.26-26.9 148.97-27.45 147.69-28 146.25-28L146.25-28Q144.81-28 143.53-27.45 142.25-26.9 141.3-25.95 140.34-25 139.79-23.72 139.25-22.44 139.25-21L139.25-21 139.25-13.99ZM160.27-21L160.27 0 153.26 0 153.26-7.01 139.25-7.01 139.25 0 132.26 0 132.26-21Q132.26-23.9 133.36-26.45 134.46-29 136.35-30.91 138.24-32.81 140.8-33.91 143.35-35.01 146.25-35.01L146.25-35.01Q149.16-35.01 151.71-33.91 154.26-32.81 156.16-30.91 158.07-29 159.17-26.45 160.27-23.9 160.27-21L160.27-21ZM180.36-28L173.35-28 173.35-13.99 180.36-13.99Q181.8-13.99 183.07-14.54 184.34-15.09 185.29-16.04 186.24-16.99 186.79-18.27 187.34-19.56 187.34-21L187.34-21Q187.34-22.44 186.79-23.72 186.24-25 185.29-25.95 184.34-26.9 183.07-27.45 181.8-28 180.36-28L180.36-28ZM173.35-7.01L173.35 0 166.34 0 166.34-35.01 180.36-35.01Q182.28-35.01 184.07-34.51 185.85-34.01 187.4-33.09 188.95-32.18 190.23-30.9 191.51-29.61 192.43-28.05 193.34-26.49 193.84-24.71 194.35-22.92 194.35-21L194.35-21Q194.35-18.12 193.25-15.56 192.15-13.01 190.24-11.11 188.34-9.2 185.79-8.11 183.24-7.01 180.36-7.01L180.36-7.01 173.35-7.01ZM212.46-28L205.45-28 205.45-13.99 212.46-13.99Q213.9-13.99 215.17-14.54 216.44-15.09 217.39-16.04 218.34-16.99 218.89-18.27 219.44-19.56 219.44-21L219.44-21Q219.44-22.44 218.89-23.72 218.34-25 217.39-25.95 216.44-26.9 215.17-27.45 213.9-28 212.46-28L212.46-28ZM205.45-7.01L205.45 0 198.44 0 198.44-35.01 212.46-35.01Q214.39-35.01 216.17-34.51 217.95-34.01 219.5-33.09 221.05-32.18 222.33-30.9 223.62-29.61 224.53-28.05 225.45-26.49 225.95-24.71 226.45-22.92 226.45-21L226.45-21Q226.45-18.12 225.35-15.56 224.25-13.01 222.35-11.11 220.44-9.2 217.89-8.11 215.34-7.01 212.46-7.01L212.46-7.01 205.45-7.01Z" opacity="1" transform="matrix(1,0,0,1,0,0)" fill="#2ecc40" class="wordmark-text-0" data-fill-palette-color="primary" id="text-0"></path></svg></g></svg></g></svg></g></svg></g></svg></g></svg></g></svg></g><path d="M188.228 94.551L188.228 33.321 7.67 33.321 7.67 213.879 188.228 213.879 188.228 152.649 184.071 152.649 184.071 209.722 11.827 209.722 11.827 37.478 184.071 37.478 184.071 94.551Z" fill="#2a2c35" stroke="transparent" data-fill-palette-color="tertiary"></path></svg></g><defs></defs></svg><rect width="395.52" height="247.2" fill="none" stroke="none" visibility="hidden"></rect></g></svg></g></svg>